<?xml version="1.0" encoding="utf-8"?>
<!-- Generator: Adobe Illustrator 24.3.0, SVG Export Plug-In . SVG Version: 6.00 Build 0)  -->
<svg version="1.1" id="Layer_1" xmlns="http://www.w3.org/2000/svg" xmlns:xlink="http://www.w3.org/1999/xlink" x="0px" y="0px"
	 viewBox="0 0 1000 1000" style="enable-background:new 0 0 1000 1000;" xml:space="preserve">
<style type="text/css">
	.st0{fill:#230568;}
	.st1{fill:url(#SVGID_1_);}
	.st2{fill:url(#SVGID_2_);}
	.st3{fill:url(#SVGID_3_);}
	.st4{fill:url(#SVGID_4_);}
	.st5{fill:url(#SVGID_5_);}
	.st6{fill:url(#SVGID_6_);}
	.st7{fill:#FFFFFF;}
	.st8{fill:url(#SVGID_7_);}
	.st9{fill:url(#SVGID_8_);}
	.st10{fill:url(#SVGID_9_);}
	.st11{fill:url(#SVGID_10_);}
	.st12{fill:url(#SVGID_11_);}
	.st13{fill:url(#SVGID_12_);}
	.st14{fill:url(#SVGID_13_);}
	.st15{fill:url(#SVGID_14_);}
	.st16{fill:url(#SVGID_15_);}
	.st17{fill:url(#SVGID_16_);}
	.st18{fill:url(#SVGID_17_);}
	.st19{fill:url(#SVGID_18_);}
	.st20{fill:url(#SVGID_19_);}
	.st21{fill:url(#SVGID_20_);}
	.st22{fill:url(#SVGID_21_);}
	.st23{fill:url(#SVGID_22_);}
	.st24{fill:url(#SVGID_23_);}
	.st25{fill:url(#SVGID_24_);}
	.st26{fill:url(#SVGID_25_);}
	.st27{fill:url(#SVGID_26_);}
	.st28{fill:url(#SVGID_27_);}
	.st29{fill:url(#SVGID_28_);}
	.st30{fill:url(#SVGID_29_);}
	.st31{fill:url(#SVGID_30_);}
	.st32{fill:url(#SVGID_31_);}
	.st33{fill:url(#SVGID_32_);}
	.st34{fill:url(#SVGID_33_);}
	.st35{fill:url(#SVGID_34_);}
	.st36{fill:url(#SVGID_35_);}
	.st37{fill:url(#SVGID_36_);}
</style>
<g>
	<g>
		<g>
			<path class="st0" d="M494.3,344.3h-72.2c-8.7,0-15.8-7.1-15.8-15.8v-15.1H510v15.1C510,337.2,503,344.3,494.3,344.3z"/>
		</g>
		<path class="st0" d="M395.9,435.1L395.9,435.1c-8,0-14.4-6.5-14.4-14.4v0c0-8,6.5-14.4,14.4-14.4h0c8,0,14.4,6.5,14.4,14.4v0
			C410.3,428.7,403.9,435.1,395.9,435.1z"/>
		<path class="st0" d="M395.9,492.8L395.9,492.8c-8,0-14.4-6.5-14.4-14.4v0c0-8,6.5-14.4,14.4-14.4h0c8,0,14.4,6.5,14.4,14.4v0
			C410.3,486.3,403.9,492.8,395.9,492.8z"/>
		<path class="st0" d="M395.9,550.4L395.9,550.4c-8,0-14.4-6.5-14.4-14.4v0c0-8,6.5-14.4,14.4-14.4h0c8,0,14.4,6.5,14.4,14.4v0
			C410.3,544,403.9,550.4,395.9,550.4z"/>
		<path class="st0" d="M395.9,608.1L395.9,608.1c-8,0-14.4-6.5-14.4-14.4v0c0-8,6.5-14.4,14.4-14.4h0c8,0,14.4,6.5,14.4,14.4v0
			C410.3,601.6,403.9,608.1,395.9,608.1z"/>
		<linearGradient id="SVGID_1_" gradientUnits="userSpaceOnUse" x1="289.192" y1="526.5359" x2="617.9618" y2="349.7779">
			<stop  offset="0" style="stop-color:#FF0FF4"/>
			<stop  offset="1" style="stop-color:#00FEFF"/>
		</linearGradient>
		<path class="st1" d="M524.4,435.1h-76.7c-8,0-14.4-6.5-14.4-14.4v0c0-8,6.5-14.4,14.4-14.4h76.7c8,0,14.4,6.5,14.4,14.4v0
			C538.8,428.7,532.4,435.1,524.4,435.1z"/>
		<linearGradient id="SVGID_2_" gradientUnits="userSpaceOnUse" x1="352.2554" y1="578.4105" x2="652.8019" y2="416.8263">
			<stop  offset="0" style="stop-color:#FF0FF4"/>
			<stop  offset="1" style="stop-color:#00FEFF"/>
		</linearGradient>
		<path class="st2" d="M605.5,492.8H471.2c-8,0-14.4-6.5-14.4-14.4v0c0-8,6.5-14.4,14.4-14.4h134.4c8,0,14.4,6.5,14.4,14.4v0
			C620,486.3,613.5,492.8,605.5,492.8z"/>
		<linearGradient id="SVGID_3_" gradientUnits="userSpaceOnUse" x1="359.7424" y1="683.4091" x2="702.4816" y2="499.1407">
			<stop  offset="0" style="stop-color:#FF0FF4"/>
			<stop  offset="1" style="stop-color:#00FEFF"/>
		</linearGradient>
		<path class="st3" d="M605.5,608.1H447.7c-8,0-14.4-6.5-14.4-14.4v0c0-8,6.5-14.4,14.4-14.4h157.8c8,0,14.4,6.5,14.4,14.4v0
			C620,601.6,613.5,608.1,605.5,608.1z"/>
		<linearGradient id="SVGID_4_" gradientUnits="userSpaceOnUse" x1="343.2851" y1="666.7769" x2="696.7354" y2="476.7498">
			<stop  offset="0" style="stop-color:#FF0FF4"/>
			<stop  offset="1" style="stop-color:#00FEFF"/>
		</linearGradient>
		<path class="st4" d="M653,550.4H520c-8,0-14.4-6.5-14.4-14.4v0c0-8,6.5-14.4,14.4-14.4H653c8,0,14.4,6.5,14.4,14.4v0
			C667.4,544,660.9,550.4,653,550.4z"/>
		<linearGradient id="SVGID_5_" gradientUnits="userSpaceOnUse" x1="327.5594" y1="575.008" x2="656.3292" y2="398.25">
			<stop  offset="0" style="stop-color:#FF0FF4"/>
			<stop  offset="1" style="stop-color:#00FEFF"/>
		</linearGradient>
		<path class="st5" d="M653,435.1h-76.7c-8,0-14.4-6.5-14.4-14.4v0c0-8,6.5-14.4,14.4-14.4H653c8,0,14.4,6.5,14.4,14.4v0
			C667.4,428.7,660.9,435.1,653,435.1z"/>
		<linearGradient id="SVGID_6_" gradientUnits="userSpaceOnUse" x1="337.2221" y1="600.3826" x2="633.2807" y2="441.2114">
			<stop  offset="0" style="stop-color:#FF0FF4"/>
			<stop  offset="1" style="stop-color:#00FEFF"/>
		</linearGradient>
		<path class="st6" d="M466,550.4h-18.1c-8,0-14.4-6.5-14.4-14.4v0c0-8,6.5-14.4,14.4-14.4H466c8,0,14.4,6.5,14.4,14.4v0
			C480.4,544,473.9,550.4,466,550.4z"/>
		<path class="st0" d="M583.6,354c-1.1-27.3-23.6-49.1-51.1-49.1H383.9c-28.3,0-51.3,22.9-51.3,51.3v287.7
			c0,28.3,22.9,51.2,51.2,51.2h148.6c28.3,0,51.2-22.9,51.2-51.2v-6c0-6.6-5.4-12-12-12s-12,5.4-12,12v6c0,15-12.2,27.2-27.2,27.2
			H383.9c-15,0-27.2-12.2-27.2-27.2V356.2c0-15,12.2-27.2,27.2-27.2h148.6c15,0,27.2,12.2,27.2,27.2V374c0,6.6,5.4,12,12,12
			s12-5.4,12-12v-19.9L583.6,354z"/>
	</g>
</g>
</svg>
